<svg xmlns="http://www.w3.org/2000/svg" version="1.1" xmlns:xlink="http://www.w3.org/1999/xlink" xmlns:svgjs="http://svgjs.dev/svgjs" width="1500" height="1500" viewBox="0 0 1500 1500"><rect width="1500" height="1500" fill="#ffffff"></rect><g transform="matrix(0.6666666666666666,0,0,0.6666666666666666,249.39393939393938,537.1149598722101)"><svg viewBox="0 0 396 168" data-background-color="#ffffff" preserveAspectRatio="xMidYMid meet" height="636" width="1500" xmlns="http://www.w3.org/2000/svg" xmlns:xlink="http://www.w3.org/1999/xlink"><g id="tight-bounds" transform="matrix(1,0,0,1,0.2400000000000091,0.35067627704883364)"><svg viewBox="0 0 395.52 167.29864744590233" height="167.29864744590233" width="395.52"><g><svg viewBox="0 0 395.52 167.29864744590233" height="167.29864744590233" width="395.52"><g><svg viewBox="0 0 395.52 167.29864744590233" height="167.29864744590233" width="395.52"><g id="textblocktransform"><svg viewBox="0 0 395.52 167.29864744590233" height="167.29864744590233" width="395.52" id="textblock"><g><svg viewBox="0 0 395.52 114.07074310843902" height="114.07074310843902" width="395.52"><rect width="395.52" height="114.07074310843902" x="0" y="0" opacity="1" fill="#1ebbd7" data-fill-palette-color="tertiary"></rect><g transform="matrix(1,0,0,1,23.461705032,23.461705032)"><svg width="348.596589936" viewBox="-1.2 -31.86 215.458026209364 41.5" height="67.14733304443901" data-palette-color="#ffffff"><path d="M19.75-2.86L19.14 0-1.2 0 5.54-31.86 25.9-31.86 25.29-29 8.3-29 5.86-17.6 18.41-17.6 17.8-14.75 5.25-14.75 2.76-2.86 19.75-2.86ZM48.8-2.95L48.19 0 38.79 0 39.4-2.95 41.4-2.95 38.3-9.55 32.44-2.95 34.3-2.95 33.69 0 24.39 0 25-2.95 28.54-2.95 36.64-11.55 32.35-19.75 29.05-19.75 29.68-22.75 39.04-22.75 38.4-19.75 36.3-19.75 39.13-13.55 44.65-19.75 42.33-19.75 42.99-22.75 52.44-22.75 51.8-19.75 48.58-19.75 40.89-11.55 45.29-2.95 48.8-2.95ZM72.99-5.96L75-4.35Q73.04-2.1 70.26-0.77 67.48 0.56 64.03 0.56L64.03 0.56Q61.4 0.56 59.37-0.32 57.34-1.2 56.09-2.77 54.83-4.35 54.4-6.52 53.97-8.69 54.58-11.35L54.58-11.35Q55.15-13.94 56.42-16.15 57.69-18.36 59.5-19.93 61.32-21.51 63.68-22.4 66.04-23.29 68.7-23.29L68.7-23.29Q69.75-23.29 70.77-23.05 71.8-22.8 72.66-22.3 73.53-21.8 74.15-21.11 74.78-20.41 75-19.46L75-19.46 75.68-22.75 78.68-22.75 76.78-13.65 73.77-13.65Q74.09-15.16 73.81-16.41 73.53-17.65 72.76-18.55 71.99-19.46 70.76-19.96 69.53-20.46 68.04-20.46L68.04-20.46Q65.99-20.46 64.31-19.75 62.64-19.04 61.36-17.82 60.08-16.6 59.21-14.95 58.34-13.31 57.93-11.35L57.93-11.35Q57.49-9.4 57.73-7.75 57.98-6.1 58.86-4.91 59.74-3.71 61.19-3 62.64-2.29 64.64-2.29L64.64-2.29Q67.18-2.29 69.38-3.3 71.58-4.3 72.99-5.96L72.99-5.96ZM103.97-14.04L101.02 0 97.67 0 100.63-14.04Q101.29-17.09 100.31-18.77 99.33-20.46 96.38-20.46L96.38-20.46Q94.52-20.46 92.85-19.6 91.18-18.75 89.82-17.32 88.47-15.89 87.53-14.05 86.59-12.21 86.17-10.21L86.17-10.21 84.03 0 80.68 0 87.42-31.86 90.79-31.86 87.64-17.04Q91.37-23.29 97.58-23.29L97.58-23.29Q105.97-23.29 103.97-14.04L103.97-14.04ZM108.02-6.15L108.02-6.15Q108.46-8.3 109.84-9.75 111.22-11.21 113.15-12.05 115.08-12.89 117.42-13.27 119.77-13.65 122.11-13.65L122.11-13.65Q123.01-13.65 123.72-13.62 124.43-13.6 125.08-13.55 125.72-13.5 126.34-13.43 126.97-13.35 127.77-13.26L127.77-13.26 128.12-14.89Q128.48-16.55 127.98-17.63 127.48-18.7 126.55-19.32 125.62-19.95 124.53-20.2 123.43-20.46 122.62-20.46L122.62-20.46Q120.06-20.46 117.79-19.78 115.52-19.09 113.42-17.94L113.42-17.94 112.42-20.46Q114.76-21.7 117.49-22.5 120.23-23.29 123.28-23.29L123.28-23.29Q125.11-23.29 126.82-22.81 128.53-22.34 129.73-21.35 130.92-20.36 131.42-18.75 131.92-17.14 131.46-14.89L131.46-14.89 128.31 0 124.97 0 125.77-3.81Q124.62-2.71 123.34-1.88 122.06-1.05 120.74-0.52 119.42 0 118.12 0.28 116.81 0.56 115.71 0.56L115.71 0.56Q111.22 0.56 109.27-1.17 107.31-2.91 108.02-6.15ZM116.32-2.29L116.32-2.29Q118.42-2.29 120.24-2.92 122.06-3.54 123.42-4.47 124.77-5.4 125.65-6.45 126.53-7.5 126.72-8.35L126.72-8.35 127.16-10.5Q125.58-10.74 124.07-10.77 122.57-10.79 121.47-10.79L121.47-10.79Q119.67-10.79 117.95-10.55 116.23-10.3 114.87-9.75 113.52-9.2 112.56-8.33 111.61-7.45 111.37-6.15L111.37-6.15Q111.03-4.71 112.17-3.5 113.32-2.29 116.32-2.29ZM158.56-14.04L155.6 0 152.26 0 155.21-14.04Q155.87-17.09 154.89-18.77 153.92-20.46 150.96-20.46L150.96-20.46Q149.11-20.46 147.44-19.6 145.76-18.75 144.41-17.32 143.05-15.89 142.11-14.05 141.17-12.21 140.76-10.21L140.76-10.21 138.61 0 135.27 0 140.05-22.75 143.42-22.75 142.22-17.04Q145.96-23.29 152.16-23.29L152.16-23.29Q160.56-23.29 158.56-14.04L158.56-14.04ZM187.7-22.75L182.94-0.24Q182.46 2.1 181.26 3.93 180.06 5.76 178.33 7.03 176.6 8.3 174.47 8.97 172.35 9.64 169.96 9.64L169.96 9.64Q166.56 9.64 164.46 8.37 162.36 7.1 161.22 4.71L161.22 4.71 163.85 2.91Q164.56 4.49 166.31 5.57 168.05 6.64 170.61 6.64L170.61 6.64Q174.06 6.64 176.45 4.9 178.84 3.15 179.55-0.15L179.55-0.15 180.11-2.59Q176.5 0.05 172.71 0.05L172.71 0.05Q167.34 0.05 164.95-3 162.56-6.05 163.71-11.35L163.71-11.35Q164.24-13.94 165.5-16.13 166.76-18.31 168.58-19.91 170.4-21.51 172.73-22.4 175.06-23.29 177.69-23.29L177.69-23.29Q179.55-23.29 181.15-22.64 182.75-22 183.9-20.7L183.9-20.7 184.36-22.75 187.7-22.75ZM180.75-5.86L183.26-17.46Q182.11-19.04 180.54-19.75 178.96-20.46 177.06-20.46L177.06-20.46Q175.06-20.46 173.39-19.75 171.71-19.04 170.46-17.82 169.2-16.6 168.33-14.93 167.47-13.26 167.05-11.35L167.05-11.35Q166.2-7.45 167.72-5.13 169.25-2.81 173.3-2.81L173.3-2.81Q175.2-2.81 177.11-3.53 179.01-4.25 180.75-5.86L180.75-5.86ZM213.8-10.21L194.15-10.21Q193.76-6.59 195.55-4.44 197.35-2.29 201.01-2.29L201.01-2.29Q203.55-2.29 205.77-3.34 207.99-4.39 209.36-5.96L209.36-5.96 211.34-4.35Q209.14-1.95 206.49-0.7 203.84 0.56 200.4 0.56L200.4 0.56Q197.74 0.56 195.75-0.32 193.76-1.2 192.48-2.77 191.19-4.35 190.77-6.52 190.34-8.69 190.95-11.35L190.95-11.35Q191.49-13.94 192.74-16.13 194-18.31 195.84-19.91 197.69-21.51 200.04-22.4 202.4-23.29 205.04-23.29L205.04-23.29Q207.94-23.29 209.89-22.31 211.85-21.34 212.95-19.62 214.05-17.9 214.22-15.5 214.39-13.11 213.8-10.21L213.8-10.21ZM194.81-13.06L210.85-13.06Q211.09-16.8 209.32-18.63 207.55-20.46 204.4-20.46L204.4-20.46Q202.79-20.46 201.31-19.93 199.84-19.41 198.59-18.43 197.35-17.46 196.34-16.08 195.34-14.7 194.81-13.06L194.81-13.06Z" opacity="1" transform="matrix(1,0,0,1,0,0)" fill="#ffffff" class="wordmark-text-0" data-fill-palette-color="quaternary" id="text-0"></path></svg></g></svg></g><g transform="matrix(1,0,0,1,0,125.80159562443902)"><svg viewBox="0 0 395.52 41.49705182146331" height="41.49705182146331" width="395.52"><g transform="matrix(1,0,0,1,0,0)"><svg width="395.52" viewBox="1.23 -33.48 408.40999999999997 42.86" height="41.49705182146331" data-palette-color="#4b91f1"><path d="M5.43 0L1.23 0 11.23-31.95 17.78-31.95 27.8 0 23.6 0 14.83-29.15 14.2-29.15 5.43 0ZM21.78-9.43L7.23-9.43 7.23-12.88 21.78-12.88 21.78-9.43ZM52.02 0.55L52.02 0.55Q49.07 0.55 46.87-0.09 44.67-0.73 43.22-1.48L43.22-1.48 42.84-5.23Q44.67-4.28 46.85-3.58 49.04-2.88 51.82-2.88L51.82-2.88Q54.64-2.88 56.07-3.78 57.49-4.67 57.49-6.45L57.49-6.45 57.49-6.73Q57.49-7.88 56.95-8.63 56.42-9.38 55.02-9.95 53.62-10.53 51.04-11.1L51.04-11.1Q47.97-11.78 46.19-12.69 44.42-13.6 43.65-14.95 42.89-16.3 42.89-18.25L42.89-18.25 42.89-18.48Q42.89-21.68 45.12-23.33 47.34-24.98 51.82-24.98L51.82-24.98Q54.69-24.98 56.8-24.33 58.92-23.68 60.27-22.88L60.27-22.88 60.64-19.45Q59.02-20.4 56.92-21.03 54.82-21.65 52.19-21.65L52.19-21.65Q50.29-21.65 49.12-21.26 47.94-20.88 47.42-20.16 46.89-19.45 46.89-18.45L46.89-18.45 46.89-18.25Q46.89-17.15 47.42-16.39 47.94-15.63 49.3-15.06 50.67-14.5 53.09-13.98L53.09-13.98Q56.22-13.35 58.05-12.48 59.89-11.6 60.69-10.26 61.49-8.93 61.49-6.83L61.49-6.83 61.49-6.4Q61.49-2.95 59.09-1.2 56.69 0.55 52.02 0.55ZM99.21 0L94.36 0 84.71-11.38 82.13-11.38 82.13-14.53 84.71-14.53 93.96-24.4 98.76-24.4 87.68-12.63 87.68-13.6 99.21 0ZM82.53 0L78.51 0 78.51-33.13 82.53-33.13 82.53 0ZM141.07 0L136.87 0 146.87-31.95 153.42-31.95 163.44 0 159.24 0 150.47-29.15 149.84-29.15 141.07 0ZM157.42-9.43L142.87-9.43 142.87-12.88 157.42-12.88 157.42-9.43ZM200.41 0L196.36 0 196.36-15.18Q196.36-17.15 195.82-18.57 195.29-20 194.07-20.79 192.86-21.58 190.76-21.58L190.76-21.58Q188.84-21.58 187.42-20.85 186.01-20.13 185.14-18.89 184.26-17.65 183.91-16.07L183.91-16.07 183.19-18.95 184.06-18.95Q184.46-20.6 185.46-21.96 186.46-23.33 188.15-24.14 189.84-24.95 192.29-24.95L192.29-24.95Q195.19-24.95 196.97-23.85 198.76-22.75 199.59-20.69 200.41-18.63 200.41-15.63L200.41-15.63 200.41 0ZM184.09 0L180.04 0 180.04-24.4 184.09-24.4 183.91-18.55 184.09-18.32 184.09 0ZM227.4-3.78L229.73-3.78 227.6-2.85 234.9-24.4 239.08-24.4 227.6 8.6 223.5 8.6 227.35-2.55 229.13-1 224.53-1 216.55-24.4 220.75-24.4 227.4-3.78ZM264.4 0.5L264.4 0.5Q261.57 0.5 259.85-0.35 258.12-1.2 257.35-2.93 256.57-4.65 256.57-7.23L256.57-7.23 256.57-22.63 260.57-22.63 260.57-7.7Q260.57-5.3 261.67-4.16 262.77-3.03 265.37-3.03L265.37-3.03Q266.85-3.03 268.21-3.35 269.57-3.68 270.77-4.28L270.77-4.28 270.4-0.8Q269.22-0.2 267.65 0.15 266.07 0.5 264.4 0.5ZM270.15-20.8L252.57-20.8 252.57-24.05 270.52-24.05 270.15-20.8ZM260.47-23.65L256.6-23.65 256.57-30.5 260.65-31.03 260.47-23.65ZM307.74 0L303.69 0 303.69-15.18Q303.69-17.15 303.15-18.57 302.61-20 301.4-20.79 300.19-21.58 298.09-21.58L298.09-21.58Q296.16-21.58 294.76-20.85 293.36-20.13 292.5-18.89 291.64-17.65 291.29-16.07L291.29-16.07 290.39-18.95 291.44-18.95Q291.81-20.6 292.81-21.96 293.81-23.33 295.5-24.14 297.19-24.95 299.61-24.95L299.61-24.95Q302.51-24.95 304.3-23.85 306.09-22.75 306.91-20.69 307.74-18.63 307.74-15.63L307.74-15.63 307.74 0ZM291.41 0L287.36 0 287.36-33.13 291.39-33.13 291.39-25.18 291.26-18.18 291.41-17.85 291.41 0ZM330.21 0L326.16 0 326.16-24.4 330.21-24.4 330.21 0ZM328.18-28.4L328.18-28.4Q326.93-28.4 326.32-29.06 325.71-29.73 325.71-30.88L325.71-30.88 325.71-31Q325.71-32.18 326.32-32.83 326.93-33.48 328.18-33.48L328.18-33.48Q329.43-33.48 330.06-32.83 330.68-32.18 330.68-31L330.68-31 330.68-30.88Q330.68-29.7 330.06-29.05 329.43-28.4 328.18-28.4ZM369.35 0L365.3 0 365.3-15.18Q365.3-17.15 364.76-18.57 364.22-20 363.01-20.79 361.8-21.58 359.7-21.58L359.7-21.58Q357.77-21.58 356.36-20.85 354.95-20.13 354.07-18.89 353.2-17.65 352.85-16.07L352.85-16.07 352.12-18.95 353-18.95Q353.4-20.6 354.4-21.96 355.4-23.33 357.09-24.14 358.77-24.95 361.22-24.95L361.22-24.95Q364.12-24.95 365.91-23.85 367.7-22.75 368.52-20.69 369.35-18.63 369.35-15.63L369.35-15.63 369.35 0ZM353.02 0L348.97 0 348.97-24.4 353.02-24.4 352.85-18.55 353.02-18.32 353.02 0ZM397.19-7.3L397.19-7.3Q392.22-7.3 389.55-9.47 386.89-11.65 386.89-15.7L386.89-15.7 386.89-16.32Q386.89-18.85 387.93-20.73 388.97-22.6 391.24-23.66 393.52-24.73 397.19-24.83L397.19-24.83 409.64-25.23 409.64-22.03 402.29-22.28 402.27-22.1Q403.99-21.75 405.09-20.9 406.19-20.05 406.73-18.78 407.27-17.5 407.27-15.8L407.27-15.8 407.27-15.25Q407.27-11.38 404.72-9.34 402.17-7.3 397.19-7.3ZM397.02 6.15L397.02 6.15 397.59 6.15Q399.84 6.15 401.45 5.81 403.07 5.48 403.94 4.75 404.82 4.03 404.82 2.83L404.82 2.83 404.82 2.73Q404.82 1.33 403.8 0.59 402.79-0.15 400.34-0.38L400.34-0.38 393.44-1 394.59-1.05Q393.19-0.85 392.13-0.4 391.07 0.05 390.47 0.79 389.87 1.53 389.87 2.63L389.87 2.63 389.87 2.68Q389.87 3.95 390.74 4.73 391.62 5.5 393.22 5.83 394.82 6.15 397.02 6.15ZM397.52 9.38L396.79 9.38Q393.49 9.38 391.1 8.81 388.72 8.25 387.4 6.99 386.09 5.73 386.09 3.6L386.09 3.6 386.09 3.5Q386.09 2 386.8 1 387.52 0 388.73-0.58 389.94-1.15 391.44-1.35L391.44-1.35 391.42-1.5Q389.37-1.85 388.39-2.71 387.42-3.58 387.42-4.95L387.42-4.95 387.42-4.98Q387.42-5.93 387.85-6.6 388.29-7.28 389.18-7.68 390.07-8.08 391.44-8.18L391.44-8.18 391.44-8.68 396.09-7.5 394.19-7.55Q392.49-7.53 391.84-7.14 391.19-6.75 391.19-5.98L391.19-5.98 391.19-5.95Q391.19-5.13 392.12-4.7 393.04-4.28 395.27-4.03L395.27-4.03 401.19-3.43Q405.07-3.03 406.84-1.56 408.62-0.1 408.62 2.75L408.62 2.75 408.62 2.88Q408.62 5.15 407.27 6.6 405.92 8.05 403.44 8.71 400.97 9.38 397.52 9.38L397.52 9.38ZM397.14-10.3L397.14-10.3Q399.24-10.3 400.63-10.91 402.02-11.53 402.73-12.76 403.44-14 403.44-15.8L403.44-15.8 403.44-16.4Q403.44-18.15 402.75-19.38 402.07-20.6 400.69-21.24 399.32-21.88 397.24-21.88L397.24-21.88 397.09-21.88Q394.84-21.88 393.43-21.19 392.02-20.5 391.38-19.26 390.74-18.03 390.74-16.38L390.74-16.38 390.74-15.8Q390.74-14 391.45-12.78 392.17-11.55 393.59-10.93 395.02-10.3 397.14-10.3Z" opacity="1" transform="matrix(1,0,0,1,0,0)" fill="#4b91f1" class="slogan-text-1" data-fill-palette-color="secondary" id="text-1"></path></svg></g></svg></g></svg></g></svg></g><g></g></svg></g><defs></defs></svg><rect width="395.52" height="167.29864744590233" fill="none" stroke="none" visibility="hidden"></rect></g></svg></g></svg>